# File created by Blade
# Date/Time:  Fri Jan 16 17:52:57 2015
#---------------------------------------------------------
:version 1.10
:name HOM
:units
  mass 1.0
  length 1.000000
  angle deg
:documentation
     Acclaim Skeleton File
:root
   axis xyz
   order TX TY TZ RX RY RZ
   position 0.000000 0.000000 0.000000
   orientation 0 0 0
:bonedata
   begin
      id 1
      name Spine_dum
      direction 0.000000 1.000000 0.000000
      length 7.170412
      axis 0.0 0.0 0.0 xyz
   end
   begin
      id 2
      name LeftUpLeg_dum
      direction 1.000000 0.000000 0.000000
      length 4.318350
      axis 0.0 0.0 0.0 xyz
   end
   begin
      id 3
      name RightUpLeg_dum
      direction -1.000000 0.000000 0.000000
      length 4.318350
      axis 0.0 0.0 0.0 xyz
   end
   begin
      id 4
      name Spine
      direction 0.000000 1.000000 0.000000
      length 0.000000
      axis 0.0 0.0 0.0 xyz
      dof rx ry rz
   end
   begin
      id 5
      name Spine_dum1
      direction 0.000000 1.000000 0.000000
      length 14.276153
      axis 0.0 0.0 0.0 xyz
   end
   begin
      id 6
      name Spine_dum2
      direction 0.000000 1.000000 0.000000
      length 10.718243
      axis 0.0 0.0 0.0 xyz
   end
   begin
      id 7
      name Spine_dum3
      direction 0.000000 1.000000 0.000000
      length 10.718243
      axis 0.0 0.0 0.0 xyz
   end
   begin
      id 8
      name Head
      direction 0.000000 1.000000 0.000000
      length 4.527550
      axis 0.0 0.0 0.0 xyz
      dof rx ry rz
   end
   begin
      id 9
      name LeftShoulder
      direction 1.000000 0.000000 0.000000
      length 7.058872
      axis 0.0 0.0 -90.0 xyz
      dof rx ry rz
   end
   begin
      id 10
      name LeftArm
      direction 1.000000 0.000000 0.000000
      length 10.955525
      axis 0.0 0.0 -90.0 xyz
      dof rx ry rz
   end
   begin
      id 11
      name LeftForeArm
      direction 1.000000 0.000000 0.000000
      length 8.193716
      axis 0.0 0.0 -90.0 xyz
      dof ry rz rx
   end
   begin
      id 12
      name LeftHand
      direction 0.000000 0.000000 0.000000
      length 0.000000
      axis 0.0 0.0 -90.0 xyz
      dof rx ry rz
   end
   begin
      id 13
      name LeftHand_dum1
      direction 0.000000 0.000000 0.000000
      length 0.000000
      axis 0.0 0.0 -90.0 xyz
   end
   begin
      id 14
      name LeftHand_dum2
      direction 1.000000 0.000000 0.000000
      length 3.937000
      axis 0.0 0.0 -90.0 xyz
   end
   begin
      id 15
      name LeftHandThumb1
      direction 0.000000 0.000000 1.000000
      length 3.937000
      axis 0.0 0.0 -90.0 xyz
      dof rx rz ry
   end
   begin
      id 16
      name RightShoulder
      direction -1.000000 0.000000 0.000000
      length 7.058872
      axis 0.0 0.0 90.0 xyz
      dof rx ry rz
   end
   begin
      id 17
      name RightArm
      direction -1.000000 0.000000 0.000000
      length 10.955525
      axis 0.0 0.0 90.0 xyz
      dof rx ry rz
   end
   begin
      id 18
      name RightForeArm
      direction -1.000000 0.000000 0.000000
      length 8.193716
      axis 0.0 0.0 90.0 xyz
      dof ry rz rx
   end
   begin
      id 19
      name RightHand
      direction 0.000000 0.000000 0.000000
      length 0.000000
      axis 0.0 0.0 90.0 xyz
      dof rx ry rz
   end
   begin
      id 20
      name RightHand_dum1
      direction 0.000000 0.000000 0.000000
      length 0.000000
      axis 0.0 0.0 90.0 xyz
   end
   begin
      id 21
      name RightHand_dum2
      direction -1.000000 0.000000 0.000000
      length 3.937000
      axis 0.0 0.0 90.0 xyz
   end
   begin
      id 22
      name RightHandThumb1
      direction 0.000000 0.000000 1.000000
      length 3.937000
      axis 0.0 0.0 90.0 xyz
      dof rx rz ry
   end
   begin
      id 23
      name LeftUpLeg
      direction 0.000000 -1.000000 0.000000
      length 17.323638
      axis 0.0 0.0 0.0 xyz
      dof rx ry rz
   end
   begin
      id 24
      name LeftLeg
      direction 0.000000 -1.000000 0.000000
      length 16.270368
      axis 0.0 0.0 0.0 xyz
      dof rx ry rz
   end
   begin
      id 25
      name LeftFoot
      direction 0.000000 -0.258819 0.965926
      length 4.922846
      axis 15.0 0.0 0.0 xyz
      dof rx ry rz
   end
   begin
      id 26
      name LeftToeBase
      direction 0.000000 0.000000 1.000000
      length 2.952750
      axis 0.0 0.0 0.0 xyz
      dof rx ry rz
   end
   begin
      id 27
      name RightUpLeg
      direction 0.000000 -1.000000 0.000000
      length 17.323638
      axis 0.0 0.0 0.0 xyz
      dof rx ry rz
   end
   begin
      id 28
      name RightLeg
      direction 0.000000 -1.000000 0.000000
      length 16.270368
      axis 0.0 0.0 0.0 xyz
      dof rx ry rz
   end
   begin
      id 29
      name RightFoot
      direction 0.000000 -0.258819 0.965926
      length 4.922846
      axis 15.0 0.0 0.0 xyz
      dof rx ry rz
   end
   begin
      id 30
      name RightToeBase
      direction 0.000000 0.000000 1.000000
      length 2.952750
      axis 0.0 0.0 0.0 xyz
      dof rx ry rz
   end
:hierarchy
   begin
      root Spine_dum LeftUpLeg_dum RightUpLeg_dum
      Spine_dum Spine
      LeftUpLeg_dum LeftUpLeg
      RightUpLeg_dum RightUpLeg
      Spine Spine_dum1 Spine_dum2 Spine_dum3
      Spine_dum1 Head
      Spine_dum2 LeftShoulder
      Spine_dum3 RightShoulder
      LeftShoulder LeftArm
      LeftArm LeftForeArm
      LeftForeArm LeftHand
      LeftHand LeftHand_dum1 LeftHand_dum2
      LeftHand_dum1 LeftHandThumb1
      RightShoulder RightArm
      RightArm RightForeArm
      RightForeArm RightHand
      RightHand RightHand_dum1 RightHand_dum2
      RightHand_dum1 RightHandThumb1
      LeftUpLeg LeftLeg
      LeftLeg LeftFoot
      LeftFoot LeftToeBase
      RightUpLeg RightLeg
      RightLeg RightFoot
      RightFoot RightToeBase
   end

# File created by Blade
# Date/Time:  Fri Jan 16 17:53:05 2015
# Frame Rate: 120.000 fps
#------------------------------------------------------
:FULLY-SPECIFIED
:DEGREES
1810
root -2.886085 35.825049 -11.686097 -10.083158 22.825144 -14.891903
Spine 4.629641 -24.344019 9.756779
Head 9.027315 -5.315435 -3.146236
LeftShoulder -17.785537 13.753343 -7.150817
LeftArm 29.253868 -14.377527 -69.990590
LeftForeArm 7.804136 -0.000000 123.741093
LeftHand 1.959837 -0.000000 14.299899
LeftHandThumb1 -26.253704 0.000000 33.147579
RightShoulder -7.461854 -7.772438 1.094476
RightArm -2.882164 -24.585907 76.872818
RightForeArm -15.778175 0.000000 16.302914
RightHand -0.117014 0.000000 7.225087
RightHandThumb1 -24.326973 -0.000000 -32.862282
LeftUpLeg 12.395009 -8.241535 2.471168
LeftLeg -6.890257 -0.000000 0.000000
LeftFoot -12.020232 19.742650 -4.046044
LeftToeBase 19.609961 -0.000000 -0.000000
RightUpLeg -21.468950 37.726770 0.673078
RightLeg 102.741874 -0.000000 -0.000000
RightFoot 20.873793 -14.116826 -18.322974
RightToeBase 6.733594 -0.000000 -0.000000
1811
root -2.896051 35.814924 -11.682139 -10.034289 22.512370 -14.794808
Spine 4.671622 -24.043049 9.672920
Head 8.936444 -5.286316 -3.191659
LeftShoulder -17.856902 13.805946 -7.187694
LeftArm 29.312010 -14.457654 -69.900346
LeftForeArm 7.731227 -0.000000 123.826851
LeftHand 1.815798 -0.000000 14.223002
LeftHandThumb1 -26.253704 0.000000 33.147579
RightShoulder -7.411733 -7.744024 1.070800
RightArm -2.696337 -24.621308 76.764786
RightForeArm -15.673382 0.000000 16.308195
RightHand -0.073454 -0.000000 7.206198
RightHandThumb1 -24.326973 -0.000000 -32.862282
LeftUpLeg 12.457041 -8.066988 2.406582
LeftLeg -6.901402 -0.000000 0.000000
LeftFoot -12.073262 19.925993 -3.950149
LeftToeBase 19.583023 -0.000000 -0.000000
RightUpLeg -21.282184 37.416823 1.043692
RightLeg 102.211037 -0.000000 -0.000000
RightFoot 20.774001 -14.460132 -18.009288
RightToeBase 6.619652 -0.000000 -0.000000
1812
root -2.903169 35.805489 -11.674844 -10.001058 22.207307 -14.701983
Spine 4.717193 -23.753887 9.600828
Head 8.858030 -5.243774 -3.259040
LeftShoulder -17.931959 13.820158 -7.224930
LeftArm 29.331468 -14.498870 -69.777866
LeftForeArm 7.631573 -0.000000 123.892164
LeftHand 1.826347 -0.000000 14.195715
LeftHandThumb1 -26.253704 0.000000 33.147579
RightShoulder -7.356572 -7.686257 1.016095
RightArm -2.559532 -24.674933 76.689645
RightForeArm -15.734078 0.000000 16.363598
RightHand -0.134177 -0.000000 6.683371
RightHandThumb1 -24.326973 -0.000000 -32.862282
LeftUpLeg 12.541098 -8.020072 2.323334
LeftLeg -6.911336 -0.000000 0.000000
LeftFoot -12.110163 20.196661 -3.895236
LeftToeBase 19.458764 -0.000000 -0.000000
RightUpLeg -21.049825 37.097384 1.432028
RightLeg 101.640795 -0.000000 -0.000000
RightFoot 20.425110 -14.808262 -17.568725
RightToeBase 6.161978 -0.000000 -0.000000
1813
root -2.909363 35.796024 -11.668928 -9.949311 21.889242 -14.612481
Spine 4.722626 -23.459141 9.557308
Head 8.818157 -5.181113 -3.348499
LeftShoulder -18.009725 13.907435 -7.223074
LeftArm 29.376747 -14.504027 -69.809431
LeftForeArm 7.603602 -0.000000 123.923879
LeftHand 1.843452 -0.000000 14.282343
LeftHandThumb1 -26.253704 0.000000 33.147579
RightShoulder -7.274385 -7.573440 0.990784
RightArm -2.485264 -24.606749 76.587709
RightForeArm -15.693389 -0.000000 16.374992
RightHand -0.091054 -0.000000 6.680563
RightHandThumb1 -24.326973 -0.000000 -32.862282
LeftUpLeg 12.604437 -7.945935 2.246571
LeftLeg -6.934013 -0.000000 0.000000
LeftFoot -12.183687 20.485843 -3.870575
LeftToeBase 19.473242 -0.000000 -0.000000
RightUpLeg -20.828423 36.748653 1.801370
RightLeg 101.024157 -0.000000 -0.000000
RightFoot 19.877857 -15.113131 -17.231275
RightToeBase 5.499586 -0.000000 -0.000000
1814
root -2.918397 35.785489 -11.664344 -9.902236 21.538044 -14.503216
Spine 4.765477 -23.110833 9.475651
Head 8.764840 -5.135034 -3.414993
LeftShoulder -18.042356 13.960293 -7.262455
LeftArm 29.414547 -14.570575 -69.620758
LeftForeArm 7.517722 -0.000000 123.992099
LeftHand 1.767745 -0.000000 14.366760
LeftHandThumb1 -26.253704 0.000000 33.147579
RightShoulder -7.227581 -7.512299 0.965133
RightArm -2.348911 -24.524477 76.494458
RightForeArm -15.740510 -0.000000 16.437152
RightHand -0.199436 -0.000000 6.324954
RightHandThumb1 -24.326973 -0.000000 -32.862282
LeftUpLeg 12.680375 -7.868229 2.152590
LeftLeg -6.942661 -0.000000 0.000000
LeftFoot -12.249369 20.799603 -3.816850
LeftToeBase 19.468326 -0.000000 -0.000000
RightUpLeg -20.613205 36.413552 2.149498
RightLeg 100.386467 -0.000000 -0.000000
RightFoot 19.137061 -15.342579 -16.852013
RightToeBase 5.034016 -0.000000 -0.000000
1815
root -2.924885 35.775006 -11.653393 -9.877284 21.180150 -14.417603
Spine 4.796493 -22.782894 9.432091
Head 8.737158 -5.073252 -3.517644
LeftShoulder -18.098247 14.045984 -7.276897
LeftArm 29.447548 -14.643354 -69.536684
LeftForeArm 7.457504 -0.000000 124.058383
LeftHand 1.719645 -0.000000 14.297988
LeftHandThumb1 -26.253704 0.000000 33.147579
RightShoulder -7.213119 -7.492224 0.951761
RightArm -2.116551 -24.616321 76.330645
RightForeArm -15.491495 0.000000 16.413578
RightHand -0.230585 0.000000 6.347356
RightHandThumb1 -24.326973 -0.000000 -32.862282
LeftUpLeg 12.779166 -7.820892 2.068586
LeftLeg -6.937675 -0.000000 0.000000
LeftFoot -12.333071 21.138160 -3.725637
LeftToeBase 19.433538 -0.000000 -0.000000
RightUpLeg -20.349025 36.062147 2.543380
RightLeg 99.681267 -0.000000 -0.000000
RightFoot 18.314993 -15.584187 -16.329798
RightToeBase 4.697747 -0.000000 -0.000000
1816
root -2.932305 35.764489 -11.647809 -9.817438 20.807244 -14.333440
Spine 4.792339 -22.461039 9.414258
Head 8.708950 -4.975348 -3.621077
LeftShoulder -18.189779 14.139186 -7.292778
LeftArm 29.494229 -14.631473 -69.458039
LeftForeArm 7.367835 -0.000000 124.102696
LeftHand 1.594549 -0.000000 14.432736
LeftHandThumb1 -26.253704 0.000000 33.147579
RightShoulder -7.157987 -7.435930 0.898053
RightArm -1.968233 -24.384496 76.231326
RightForeArm -15.665067 -0.000000 16.483794
RightHand -0.266527 -0.000000 5.962143
RightHandThumb1 -24.326973 -0.000000 -32.862282
LeftUpLeg 12.826288 -7.750542 1.999944
LeftLeg -6.938067 -0.000000 0.000000
LeftFoot -12.415663 21.456456 -3.498137
LeftToeBase 19.686546 -0.000000 -0.000000
RightUpLeg -20.140539 35.661645 2.907988
RightLeg 98.931024 -0.000000 -0.000000
RightFoot 17.432805 -15.792337 -15.985397
RightToeBase 4.285070 -0.000000 -0.000000
1817
root -2.925824 35.750139 -11.650990 -9.723971 20.398226 -14.204534
Spine 4.786985 -22.145491 9.412846
Head 8.638308 -4.824263 -3.777757
LeftShoulder -18.315123 14.177993 -7.333701
LeftArm 29.499157 -14.630362 -69.411957
LeftForeArm 7.341156 -0.000000 124.168161
LeftHand 1.549987 -0.000000 14.432218
LeftHandThumb1 -26.253704 0.000000 33.147579
RightShoulder -7.084117 -7.328450 0.816230
RightArm -1.811195 -24.485538 76.068955
RightForeArm -15.343911 -0.000000 16.530769
RightHand -0.216572 0.000000 5.978462
RightHandThumb1 -24.326973 -0.000000 -32.862282
LeftUpLeg 12.855416 -7.768133 1.833758
LeftLeg -6.907712 -0.000000 0.000000
LeftFoot -12.485923 21.882295 -3.567269
LeftToeBase 19.456060 -0.000000 -0.000000
RightUpLeg -19.990944 35.297827 3.134604
RightLeg 98.138203 -0.000000 -0.000000
RightFoot 16.526499 -15.922097 -15.417304
RightToeBase 3.153404 -0.000000 -0.000000
1818
root -2.930261 35.738695 -11.647756 -9.615274 19.956408 -14.105629
Spine 4.738013 -21.783728 9.405608
Head 8.627754 -4.709543 -3.850487
LeftShoulder -18.448285 14.253284 -7.331191
LeftArm 29.503318 -14.581792 -69.371802
LeftForeArm 7.302273 -0.000000 124.230126
LeftHand 1.589129 0.000000 14.516062
LeftHandThumb1 -26.253704 0.000000 33.147579
RightShoulder -7.035088 -7.315740 0.803855
RightArm -1.588220 -24.289140 75.878479
RightForeArm -15.305382 0.000000 16.565535
RightHand -0.170996 -0.000000 5.940283
RightHandThumb1 -24.326973 -0.000000 -32.862282
LeftUpLeg 12.863832 -7.747125 1.734178
LeftLeg -6.890481 -0.000000 0.000000
LeftFoot -12.580768 22.309651 -3.534025
LeftToeBase 19.472665 -0.000000 -0.000000
RightUpLeg -19.858137 34.949472 3.434651
RightLeg 97.297653 -0.000000 -0.000000
RightFoot 15.587750 -16.152613 -14.790581
RightToeBase 2.146045 -0.000000 -0.000000
1819
root -2.935017 35.728603 -11.644917 -9.509071 19.512022 -14.022585
Spine 4.692243 -21.432033 9.415677
Head 8.608709 -4.589020 -3.908427
LeftShoulder -18.591329 14.321978 -7.343968
LeftArm 29.496737 -14.524277 -69.295968
LeftForeArm 7.269983 -0.000000 124.307327
LeftHand 1.572927 0.000000 14.617039
LeftHandThumb1 -26.253704 0.000000 33.147579
RightShoulder -7.007021 -7.078202 0.775873
RightArm -1.600477 -24.268265 75.763246
RightForeArm -15.265835 -0.000000 16.645950
RightHand -0.168006 -0.000000 5.638865
RightHandThumb1 -24.326973 -0.000000 -32.862282
LeftUpLeg 12.868425 -7.769407 1.649667
LeftLeg -6.854800 -0.000000 0.000000
LeftFoot -12.659059 22.748961 -3.427264
LeftToeBase 19.453817 -0.000000 -0.000000
RightUpLeg -19.714054 34.570508 3.736255
RightLeg 96.389116 -0.000000 -0.000000
RightFoot 14.613877 -16.307400 -14.146287
RightToeBase 1.235258 -0.000000 -0.000000
